<svg width="1200" height="800" xmlns="http://www.w3.org/2000/svg">
  <defs>
    <style>
      .kernel { fill: #e1f5fe; stroke: #0277bd; stroke-width: 2; }
      .user-space { fill: #f3e5f5; stroke: #7b1fa2; stroke-width: 2; }
      .rump-server { fill: #e8f5e8; stroke: #388e3c; stroke-width: 2; }
      .hal-server { fill: #fff3e0; stroke: #f57c00; stroke-width: 2; }
      .family-interface { fill: #fce4ec; stroke: #c2185b; stroke-width: 2; }
      .arrow { stroke: #666; stroke-width: 2; fill: none; marker-end: url(#arrowhead); }
      .text { font-family: Arial, sans-serif; font-size: 14px; fill: #333; }
      .title { font-family: Arial, sans-serif; font-size: 16px; font-weight: bold; fill: #000; }
    </style>
    <marker id="arrowhead" markerWidth="10" markerHeight="7" refX="9" refY="3.5" orient="auto">
      <polygon points="0 0, 10 3.5, 0 7" fill="#666" />
    </marker>
  </defs>
  
  <!-- Title -->
  <text x="600" y="30" text-anchor="middle" class="title">Lux9 Multi-Kernel OS Architecture</text>
  
  <!-- User Space Layer -->
  <rect x="50" y="50" width="1100" height="200" class="user-space" rx="5"/>
  <text x="100" y="70" class="title">USER SPACE (9P Communication)</text>
  
  <!-- HAL Server -->
  <rect x="100" y="90" width="200" height="60" class="hal-server" rx="5"/>
  <text x="200" y="110" text-anchor="middle" class="title">HAL Server</text>
  <text x="200" y="125" text-anchor="middle" class="text">• Hardware Discovery</text>
  <text x="200" y="140" text-anchor="middle" class="text">• Service Coordination</text>
  
  <!-- Console Rump Server -->
  <rect x="350" y="90" width="200" height="60" class="rump-server" rx="5"/>
  <text x="450" y="110" text-anchor="middle" class="title">Console Rump Server</text>
  <text x="450" y="125" text-anchor="middle" class="text">• UART Driver</text>
  <text x="450" y="140" text-anchor="middle" class="text">• VGA/Keyboard Drivers</text>
  
  <!-- Storage Rump Server -->
  <rect x="600" y="90" width="200" height="60" class="rump-server" rx="5"/>
  <text x="700" y="110" text-anchor="middle" class="title">Storage Rump Server</text>
  <text x="700" y="125" text-anchor="middle" class="text">• AHCI/NVMe Drivers</text>
  <text x="700" y="140" text-anchor="middle" class="text">• USB Storage Driver</text>
  
  <!-- User Applications -->
  <rect x="850" y="90" width="200" height="60" class="user-space" rx="5"/>
  <text x="950" y="110" text-anchor="middle" class="title">User Applications</text>
  <text x="950" y="125" text-anchor="middle" class="text">• Console Program</text>
  <text x="950" y="140" text-anchor="middle" class="text">• Regular Apps</text>
  
  <!-- Family Interface Layer -->
  <rect x="50" y="280" width="1100" height="120" class="family-interface" rx="5"/>
  <text x="100" y="300" class="title">FAMILY INTERFACES (Hardware Abstraction)</text>
  
  <!-- PCI Family -->
  <rect x="100" y="320" width="180" height="70" class="family-interface" rx="3"/>
  <text x="190" y="340" text-anchor="middle" class="title">PCI Family</text>
  <text x="190" y="355" text-anchor="middle" class="text">• Device Discovery</text>
  <text x="190" y="370" text-anchor="middle" class="text">• Channel Management</text>
  <text x="190" y="385" text-anchor="middle" class="text">• Transaction Support</text>
  
  <!-- USB Family -->
  <rect x="300" y="320" width="180" height="70" class="family-interface" rx="3"/>
  <text x="390" y="340" text-anchor="middle" class="title">USB Family</text>
  <text x="390" y="355" text-anchor="middle" class="text">• Device Hierarchy</text>
  <text x="390" y="370" text-anchor="middle" class="text">• Hub Management</text>
  <text x="390" y="385" text-anchor="middle" class="text">• Transaction Support</text>
  
  <!-- Serial Family -->
  <rect x="500" y="320" width="180" height="70" class="family-interface" rx="3"/>
  <text x="590" y="340" text-anchor="middle" class="title">Serial Family</text>
  <text x="590" y="355" text-anchor="middle" class="text">• UART Operations</text>
  <text x="590" y="370" text-anchor="middle" class="text">• Flow Control</text>
  <text x="590" y="385" text-anchor="middle" class="text">• Buffer Management</text>
  
  <!-- 9P Interface -->
  <rect x="700" y="320" width="180" height="70" class="family-interface" rx="3"/>
  <text x="790" y="340" text-anchor="middle" class="title">9P Interface</text>
  <text x="790" y="355" text-anchor="middle" class="text">• Device File Creation</text>
  <text x="790" y="370" text-anchor="middle" class="text">• Channel Access</text>
  <text x="790" y="385" text-anchor="middle" class="text">• Service Discovery</text>
  
  <!-- Exchange/Memory -->
  <rect x="900" y="320" width="180" height="70" class="family-interface" rx="3"/>
  <text x="990" y="340" text-anchor="middle" class="title">Exchange/Memory</text>
  <text x="990" y="355" text-anchor="middle" class="text">• Zero-copy transfers</text>
  <text x="990" y="370" text-anchor="middle" class="text">• Pebble security</text>
  <text x="990" y="385" text-anchor="middle" class="text">• Borrow checking</text>
  
  <!-- Kernel Layer -->
  <rect x="50" y="430" width="1100" height="120" class="kernel" rx="5"/>
  <text x="100" y="450" class="title">LUX9 KERNEL (Minimal Host)</text>
  
  <!-- Kernel Services -->
  <rect x="100" y="470" width="200" height="70" class="kernel" rx="3"/>
  <text x="200" y="490" text-anchor="middle" class="text">• Memory Management</text>
  <text x="200" y="505" text-anchor="middle" class="text">• Process Management</text>
  <text x="200" y="520" text-anchor="middle" class="text">• Syscall Interface</text>
  <text x="200" y="535" text-anchor="middle" class="text">• Inter-Process Communication</text>
  
  <!-- Hardware Access -->
  <rect x="350" y="470" width="200" height="70" class="kernel" rx="3"/>
  <text x="450" y="490" text-anchor="middle" class="text">• Basic Hardware Access</text>
  <text x="450" y="505" text-anchor="middle" class="text">• Interrupt Routing</text>
  <text x="450" y="520" text-anchor="middle" class="text">• DMA Coordination</text>
  <text x="450" y="535" text-anchor="middle" class="text">• Power Management</text>
  
  <!-- Transaction Manager -->
  <rect x="600" y="470" width="200" height="70" class="kernel" rx="3"/>
  <text x="700" y="490" text-anchor="middle" class="text">• Multi-device Transactions</text>
  <text x="700" y="505" text-anchor="middle" class="text">• Rollback Support</text>
  <text x="700" y="520" text-anchor="middle" class="text">• Resource Coordination</text>
  <text x="700" y="535" text-anchor="middle" class="text">• Error Recovery</text>
  
  <!-- Security/Pebble -->
  <rect x="850" y="470" width="200" height="70" class="kernel" rx="3"/>
  <text x="950" y="490" text-anchor="middle" class="text">• Memory Safety (Pebble)</text>
  <text x="950" y="505" text-anchor="middle" class="text">• Borrow Checker</text>
  <text x="950" y="520" text-anchor="middle" class="text">• Capability System</text>
  <text x="950" y="535" text-anchor="middle" class="text">• Security Primitives</text>
  
  <!-- Hardware Layer -->
  <rect x="50" y="580" width="1100" height="100" fill="#f5f5f5" stroke="#666" stroke-width="2" rx="5"/>
  <text x="100" y="600" class="title">HARDWARE LAYER</text>
  
  <!-- Hardware Components -->
  <rect x="100" y="620" width="140" height="50" fill="#fff" stroke="#333" stroke-width="1" rx="3"/>
  <text x="170" y="640" text-anchor="middle" class="text">UART 0x3F8</text>
  <text x="170" y="655" text-anchor="middle" class="text">(COM1)</text>
  
  <rect x="260" y="620" width="140" height="50" fill="#fff" stroke="#333" stroke-width="1" rx="3"/>
  <text x="330" y="640" text-anchor="middle" class="text">VGA Text</text>
  <text x="330" y="655" text-anchor="middle" class="text">Mode</text>
  
  <rect x="420" y="620" width="140" height="50" fill="#fff" stroke="#333" stroke-width="1" rx="3"/>
  <text x="490" y="640" text-anchor="middle" class="text">AHCI</text>
  <text x="490" y="655" text-anchor="middle" class="text">Controller</text>
  
  <rect x="580" y="620" width="140" height="50" fill="#fff" stroke="#333" stroke-width="1" rx="3"/>
  <text x="650" y="640" text-anchor="middle" class="text">PCI</text>
  <text x="650" y="655" text-anchor="middle" class="text">Devices</text>
  
  <rect x="740" y="620" width="140" height="50" fill="#fff" stroke="#333" stroke-width="1" rx="3"/>
  <text x="810" y="640" text-anchor="middle" class="text">USB</text>
  <text x="810" y="655" text-anchor="middle" class="text">Hub</text>
  
  <rect x="900" y="620" width="140" height="50" fill="#fff" stroke="#333" stroke-width="1" rx="3"/>
  <text x="970" y="640" text-anchor="middle" class="text">Keyboard</text>
  <text x="970" y="655" text-anchor="middle" class="text">Controller</text>
  
  <!-- Communication Arrows -->
  <!-- User Space to Family Interface -->
  <line x1="200" y1="150" x2="190" y2="280" class="arrow"/>
  <line x1="450" y1="150" x2="190" y2="280" class="arrow"/>
  <line x1="700" y1="150" x2="390" y2="280" class="arrow"/>
  <line x1="950" y1="150" x2="790" y2="280" class="arrow"/>
  
  <!-- Family Interface to Kernel -->
  <line x1="190" y1="390" x2="200" y2="430" class="arrow"/>
  <line x1="390" y1="390" x2="450" y2="430" class="arrow"/>
  <line x1="590" y1="390" x2="700" y2="430" class="arrow"/>
  <line x1="790" y1="390" x2="950" y2="430" class="arrow"/>
  
  <!-- Kernel to Hardware -->
  <line x1="450" y1="540" x2="330" y2="580" class="arrow"/>
  <line x1="700" y1="540" x2="490" y2="580" class="arrow"/>
  <line x1="950" y1="540" x2="970" y2="580" class="arrow"/>
  
  <!-- Legend -->
  <rect x="50" y="710" width="200" height="70" fill="none" stroke="#333" stroke-width="1" rx="3"/>
  <text x="60" y="725" class="title">Legend:</text>
  <text x="60" y="745" class="text">• NetBSD Rump Servers = Full driver stacks</text>
  <text x="60" y="760" class="text">• Family Interfaces = Hardware abstraction</text>
  <text x="60" y="775" class="text">• 9P = Universal communication protocol</text>
</svg>
